<?xml version="1.0" encoding="utf-8"?> <!-- Generator: IcoMoon.io --> <!DOCTYPE svg PUBLIC "-//W3C//DTD SVG 1.1//EN" "http://www.w3.org/Graphics/SVG/1.1/DTD/svg11.dtd"> <svg fill="#000000" xmlns:xlink="http://www.w3.org/1999/xlink" xmlns="http://www.w3.org/2000/svg" width="512" height="512" viewBox="0 0 512 512"><path d="M 421.344,512.00C 420.944,282.384, 220.592,94.736,0.00,94.304L0.00,0.00 c 270.656,0.00, 512.00,230.304, 512.00,512.00L 421.344,512.00 z M 343.60,511.968l-90.608,0.00 c 0.304-56.384-28.336-119.488-73.664-166.736C 134.256,297.60, 54.368,267.584, 0.224,267.872L 0.224,173.60 C 169.264,177.248, 340.16,336.912, 343.60,511.968z M 64.256,383.952c 35.312,0.00, 63.936,28.656, 63.936,64.00c0.00,35.328-28.624,63.984-63.936,63.984 S 0.32,483.28, 0.32,447.952C 0.32,412.608, 28.944,383.952, 64.256,383.952z" ></path></svg>